<?xml version="1.0" encoding="UTF-8"?>
<svg data-bbox="0 0.007 228.971 44.133" xmlns="http://www.w3.org/2000/svg" viewBox="0 0 229 45" height="45" width="229" data-type="color">
    <g>
        <path fill="#ffffff" d="M52.65 4.572v-2.66h-7.334v9.862h-5.357v6.036H61.08v-6.036h-8.43z" data-color="1"/>
        <path fill="#ffffff" d="M53.66 36.3c-.676-.587-1.01-1.652-1.01-3.203V17.81l-7.341 1.08v14.208c0 2.558.428 4.594 1.286 6.094s2.05 2.58 3.576 3.231q2.288.98 5.415.979h5.262v-6.217h-3.794c-1.592 0-2.718-.297-3.394-.884" data-color="1"/>
        <path fill="#ffffff" d="M91.788 13.506c-1.752-1.037-3.896-1.55-6.418-1.55q-3.304.001-5.93 1.492c-1.752.992-3.14 2.326-4.158 3.992V1.913h-7.34v41.495h7.34V27.134q.002-2.868 1.04-4.847 1.035-1.976 2.812-3.05c1.185-.71 2.507-1.065 3.975-1.065 2.283 0 3.983.695 5.103 2.072 1.119 1.384 1.679 3.39 1.679 6.035v17.129h7.275V25.606c0-3.007-.458-5.514-1.374-7.529q-1.375-3.019-4.005-4.571" data-color="1"/>
        <path fill="#ffffff" d="M127.277 13.991q-3.52-2.043-7.922-2.043-4.403 0-7.922 2.043c-2.348 1.362-4.186 3.253-5.531 5.666-1.345 2.42-2.021 5.231-2.021 8.441s.662 5.905 1.985 8.318c1.322 2.42 3.161 4.311 5.501 5.673s4.986 2.043 7.923 2.043q4.402 0 7.922-2.043 3.512-2.041 5.531-5.637 2.018-3.597 2.02-8.412 0-4.815-1.984-8.412a14.5 14.5 0 0 0-5.502-5.637m-1.068 19.476c-.734 1.464-1.701 2.558-2.907 3.29-1.207.731-2.537 1.093-4.005 1.093s-2.74-.369-3.947-1.093c-1.206-.732-2.173-1.826-2.907-3.29s-1.097-3.268-1.097-5.427.37-3.949 1.097-5.398q1.103-2.163 2.936-3.26a7.6 7.6 0 0 1 3.976-1.094c1.432 0 2.805.37 4.005 1.094s2.158 1.818 2.871 3.26q1.068 2.161 1.068 5.398c0 2.16-.371 3.963-1.098 5.427z" data-color="1"/>
        <path fill="#ffffff" d="M185.276 13.506c-1.795-1.037-3.976-1.55-6.541-1.55q-3.24-.002-5.989 1.463a12.2 12.2 0 0 0-4.463 4.02q-.915-1.822-2.355-3.05a9.7 9.7 0 0 0-3.299-1.825q-1.865-.609-4.187-.609-3.119-.002-5.531 1.312a10.37 10.37 0 0 0-3.881 3.63l-.61-4.203h-6.483v30.721h7.34V27.077q0-2.859.916-4.848.915-1.979 2.537-3.021 1.613-1.034 3.641-1.036c2.122 0 3.707.695 4.768 2.072q1.591 2.078 1.591 5.97v17.194h7.276V27.069q0-2.858.915-4.847.915-1.979 2.537-3.021c1.083-.689 2.333-1.037 3.758-1.037 2.078 0 3.648.696 4.709 2.073q1.592 2.078 1.592 5.97v17.194h7.275V25.475c0-2.927-.472-5.398-1.403-7.405q-1.406-3.02-4.099-4.572z" data-color="1"/>
        <path fill="#ffffff" d="M15.212 1.942 0 43.4h7.646l3.547-10.057 2.042-5.79 6.454-18.287 3.038 8.608c1.04 2.941 2.231 6.34 3.401 9.68h.015l2.042 5.789L31.732 43.4h7.762L24.29 1.94h-9.085z" data-color="1"/>
        <path fill="#ffffff" d="M228.048 26.794a12.1 12.1 0 0 0-2.631-3.811 10.4 10.4 0 0 0-4.005-2.435q2.996-1.28 4.739-3.746 1.744-2.464 1.744-5.398-.001-3.11-1.65-5.666c-1.097-1.71-2.711-3.086-4.833-4.144Q218.229.007 213.585.007c-3.097 0-5.72.53-7.857 1.587-2.137 1.058-3.758 2.434-4.862 4.144-1.098 1.71-1.65 3.594-1.65 5.666s.581 3.79 1.744 5.398c.291.399.603.776.945 1.138 1.475 1.536 3.445 2.507 5.524 2.956 5.589 1.21 9.223 2.811 11.258 4.195q.25.163.458.326c.13.094.269.174.392.283.102.087.189.188.284.282q.176.164.319.326.14.153.247.305c.08.108.153.217.204.319-.029-.066-.087-.138-.138-.21.821 1.13 1.25 2.535 1.25 4.252 0 2.037-.683 3.71-2.05 5.029q-2.05 1.978-6.083 1.978t-6.149-1.978c-1.402-1.319-2.107-3-2.107-5.029 0-2.275.741-4.035 2.231-5.274q2.233-1.861 6.025-1.862 1.407 0 2.595.26c-4.906-2.028-12.465-3.47-15.517.03-.073.08-.48.63-.502.659a11.3 11.3 0 0 0-1.076 1.978c-.61 1.463-.915 3.05-.915 4.753q0 3.837 2.049 6.673 2.052 2.837 5.531 4.39c2.319 1.037 4.935 1.559 7.828 1.559 2.892 0 5.494-.522 7.798-1.558q3.458-1.555 5.531-4.39 2.08-2.837 2.079-6.674c0-1.71-.32-3.282-.945-4.724zm-7.428-14.6c0 1.746-.625 3.203-1.868 4.362q-1.864 1.74-5.167 1.739c-2.203 0-3.925-.565-5.168-1.71q-1.866-1.707-1.868-4.39c0-1.993.618-3.522 1.868-4.602 1.243-1.08 2.965-1.615 5.168-1.615q3.303-.002 5.167 1.615c1.243 1.08 1.868 2.609 1.868 4.601" data-color="1"/>
    </g>
</svg>
