<?xml version="1.0" encoding="UTF-8"?>
<svg data-bbox="0.722 0.922 235.432 67.402" xmlns="http://www.w3.org/2000/svg" viewBox="0 0 237 69" height="69" width="237" data-type="color">
    <g>
        <g clip-path="url(#ca3d3ca0-29a6-4ac7-8bbc-89449f2024dd)">
            <path fill="#1B1C20" d="M236.154.922H.722v67.402h235.432z" data-color="1"/>
            <path fill="#F9B700" d="M26.772 22.357h6.758V45.55h18.715v5.986H26.772z" data-color="2"/>
            <path fill="#F9B700" d="M82.963 42.47c-.46 2.246-4.127 9.155-14.255 9.155s-15.634-6.14-15.634-14.733c0-7.78 5.091-14.58 15.174-14.58 10.281.1 15.22 6.502 15.22 16.427H59.49c.252 1.739 1.225 7.471 9.01 7.779 3.965 0 6.614-1.893 7.533-4.039h6.92zm-6.218-8.648c-.964-4.655-4.127-6.394-8.65-6.394-3.307 0-7.127 1.123-8.398 6.394h17.057z" data-color="2"/>
            <path fill="#F9B700" d="M86.09 12.586h6.316v5.624h-6.317zm0 9.644h6.316v29.314h-6.317z" data-color="2"/>
            <path fill="#F9B700" d="M123.736 46.246c0 1.838.144 4.438.757 5.298h-6.47c-.477-.915-.612-2.69-.612-3.604-2.641 1.53-6.569 3.685-11.967 3.685-3.613 0-10.587-1.53-10.587-8.286 0-9.264 13.741-10.586 22.554-11.102v-1.232c0-2.091-1.884-3.577-7.074-3.577-5.803 0-7.019 2.147-7.38 3.632h-6.568c1.532-7.471 8.803-8.748 13.894-8.748 13.183 0 13.435 6.448 13.435 10.233v13.71zm-6.316-9.409c-3.668.154-6.867.67-9.822 1.386-3.92.924-5.749 2.246-5.803 4.654-.054 2.355 1.469 3.84 4.578 3.84 4.784 0 8.605-2.1 11.047-3.577z" data-color="2"/>
            <path fill="#F9B700" d="M154.661 51.544h-6.208V47.27c-1.884 1.947-4.686 4.346-10.237 4.346-5.55 0-10.686-2.408-10.686-10.794V22.185h6.316v16.282c0 5.425 1.631 7.725 5.857 7.725 5.037 0 7.074-2.101 8.65-4.048V22.185h6.317v29.35z" data-color="2"/>
            <path fill="#F9B700" d="M157.544 22.23h4.884v-9.753h6.317v9.753h9.515v6.457h-9.515v13.466c0 1.947.766 4.048 4.424 4.048 1.216 0 3.766-.308 5.397-.77v5.579c-3.108.407-4.586.615-6.821.615-6.01 0-9.317-1.947-9.317-7.978v-14.95h-4.884z" data-color="2"/>
            <path fill="#F9B700" d="M209.32 42.47c-.46 2.246-4.127 9.155-14.255 9.155s-15.625-6.14-15.625-14.733c0-7.78 5.091-14.58 15.174-14.58 10.282.1 15.22 6.502 15.22 16.427h-23.978c.261 1.739 1.225 7.471 9.011 7.779 3.973 0 6.623-1.893 7.533-4.039h6.92zm-6.208-8.648c-.965-4.655-4.127-6.394-8.651-6.394-3.307 0-7.127 1.123-8.398 6.394h17.058z" data-color="2"/>
        </g>
        <defs fill="none">
            <clipPath id="ca3d3ca0-29a6-4ac7-8bbc-89449f2024dd">
                <path fill="#ffffff" d="M236.154.922v67.402H.722V.922z"/>
            </clipPath>
        </defs>
    </g>
</svg>
