<?xml version="1.0" encoding="UTF-8"?>
<svg data-bbox="0 0 144.302 144.297" xmlns="http://www.w3.org/2000/svg" viewBox="0 0 145 145" height="145" width="145" data-type="color">
    <g>
        <g clip-path="url(#5aeb54e3-dbc4-4df5-9b02-915f11ca99ce)">
            <path fill="#ffffff" d="M72.149 0c16.011 0 30.802 5.217 42.774 14.044l.213.147a11 11 0 0 1 5.413-1.412c6.112 0 11.073 4.956 11.073 11.072a11 11 0 0 1-1.423 5.43l.147.213c8.772 11.95 13.956 26.692 13.956 42.655 0 39.846-32.301 72.148-72.148 72.148S0 111.995 0 72.149C0 32.302 32.302 0 72.149 0" clip-rule="evenodd" fill-rule="evenodd" data-color="1"/>
            <path fill="#59AF31" d="M120.544 17.55a6.305 6.305 0 0 1 6.302 6.301 6.305 6.305 0 0 1-6.302 6.303 6.305 6.305 0 0 1-6.303-6.303 6.305 6.305 0 0 1 6.303-6.302" clip-rule="evenodd" fill-rule="evenodd" data-color="2"/>
            <path fill="#0069B3" d="M72.149 7.654c14.207 0 27.335 4.596 37.993 12.381a11.1 11.1 0 0 0-.649 4.596c.382 5.485 4.754 9.868 10.238 10.266h.011c.267.022.535.027.802.027 1.33 0 2.611-.234 3.794-.665 7.736 10.636 12.299 23.726 12.299 37.884 0 35.616-28.872 64.489-64.488 64.489S7.653 107.765 7.653 72.149 36.532 7.654 72.15 7.654" clip-rule="evenodd" fill-rule="evenodd" data-color="3"/>
            <path fill="#59AF31" d="M77.878 61.458h6.635s-2.066 9.818-2.18 10.549c-.11.73.381 1.434 1.188 1.177.801-.261.916-.436 1.14-1.286.223-.856 2.218-10.587 2.218-10.587h6.302s-1.93 10.003-2.59 12.577c-.653 2.573-3.946 5.768-8.111 5.408-4.16-.36-6.75-2.503-6.75-5.523 0-.632.186-1.728.333-2.775.561-3.925 1.81-9.546 1.81-9.546z" clip-rule="evenodd" fill-rule="evenodd" data-color="2"/>
            <path fill="#59AF31" d="M90.886 78.418s2.017-9.72 2.612-12.566c.594-2.846 4.394-5.648 8.668-5.24 4.274.41 6.477 3.392 6.079 6.45s-2.241 11.427-2.241 11.427h-6.34s1.869-9.41 2.093-10.587c.223-1.178-1.646-1.941-2.279-.322-.632 1.625-2.142 10.87-2.142 10.87l-6.45-.037z" clip-rule="evenodd" fill-rule="evenodd" data-color="2"/>
            <path fill="#59AF31" d="M98.066 54.523a4.755 4.755 0 1 1 9.51.002 4.755 4.755 0 0 1-9.51-.002" clip-rule="evenodd" fill-rule="evenodd" data-color="2"/>
            <path fill="#ffffff" d="M33.021 78.38s1.412-7.082 1.996-10.326c.583-3.243 3.418-6.45 6.487-6.635 2.35-.141 2.759-.038 2.759-.038l-.742 4.324s-1.466-.077-2.273.163c-1.052.305-1.44 1.374-1.663 2.3-.223.928-1.81 10.217-1.81 10.217h-4.754z" clip-rule="evenodd" fill-rule="evenodd" data-color="1"/>
            <path fill="#ffffff" d="M62.51 61.349h10.538c.954 0 2.59 1.335 2.328 2.622s-1.08 2.252-2.104 3.206c-1.03.954-7.006 6.896-7.006 6.896h7.044l-.67 4.383H62.105c-1.177 0-2.846-.556-2.627-2.18.223-1.625 1.112-2.612 2.698-4.084 1.587-1.472 7.29-6.673 7.29-6.673h-7.442z" clip-rule="evenodd" fill-rule="evenodd" data-color="1"/>
            <path fill="#ffffff" d="m108.768 78.347 2.944-17.075h4.683l-2.84 17.146z" clip-rule="evenodd" fill-rule="evenodd" data-color="1"/>
            <path fill="#ffffff" d="m128.263 66.037.818-4.727s-6.596-1.139-10.473 4.062c-3.876 5.201-1.695 9.988.333 11.612s7.218 1.363 7.218 1.363l.632-4.421s-2.251-.11-3.429-.11-2.437-2.267-1.842-4.208c.594-1.946 1.706-2.998 2.698-3.358s2.317-.246 2.317-.246l1.734.039z" clip-rule="evenodd" fill-rule="evenodd" data-color="1"/>
            <path fill="#59AF31" d="M76.439 82.213c0-.83 1.025-1.5 2.284-1.5 1.26 0 2.285.67 2.285 1.5 0 .828-1.025 1.499-2.285 1.499s-2.284-.67-2.284-1.5" clip-rule="evenodd" fill-rule="evenodd" data-color="2"/>
            <path fill="#59AF31" d="M83.45 82.213c0-.83 1.025-1.5 2.284-1.5 1.26 0 2.285.67 2.285 1.5 0 .828-1.025 1.499-2.285 1.499s-2.284-.67-2.284-1.5" clip-rule="evenodd" fill-rule="evenodd" data-color="2"/>
            <path fill="#ffffff" d="M105.273 105.012v7.212c0 .551-.109 1.064-.321 1.554a4 4 0 0 1-.856 1.287c-.355.371-.78.659-1.265.872a4 4 0 0 1-1.554.305q-.825-.001-1.553-.305a4.2 4.2 0 0 1-1.287-.872 4.2 4.2 0 0 1-.878-1.287 4 4 0 0 1-.305-1.554c0-.55.103-1.079.305-1.553.213-.491.507-.911.878-1.271a3.9 3.9 0 0 1 1.287-.855 3.8 3.8 0 0 1 1.553-.322h2.41v-3.211zm-4.001 9.638q.5 0 .927-.179a2.38 2.38 0 0 0 1.286-1.303c.131-.3.196-.611.196-.949v-2.41h-2.409q-.5 0-.949.197c-.3.12-.561.289-.785.517a2.5 2.5 0 0 0-.518.769q-.18.427-.18.927t.18.949c.131.299.306.556.518.785.224.212.491.387.785.518.3.12.611.179.949.179m-4.465-6.427v4.001c0 .551-.11 1.064-.322 1.554q-.305.729-.856 1.287-.553.555-1.286.872a3.9 3.9 0 0 1-1.554.305 4 4 0 0 1-1.554-.305 4.3 4.3 0 0 1-1.287-.872 4.4 4.4 0 0 1-.855-1.287 4 4 0 0 1-.306-1.554v-4.001h1.592v4.001q0 .5.18.949c.13.3.305.556.518.785q.336.32.769.518c.3.12.61.18.943.18q.499 0 .948-.18.45-.198.77-.518c.223-.229.397-.485.517-.785.13-.3.196-.611.196-.949v-4.001zm-9.29 0v1.586h-4.836a.78.78 0 0 0-.572.235.76.76 0 0 0-.235.572c0 .229.077.42.235.589a.78.78 0 0 0 .572.229h3.211q.501 0 .927.196c.3.12.55.284.769.502q.336.319.518.768.195.428.196.927 0 .5-.196.949-.182.425-.518.769a2.5 2.5 0 0 1-.769.517 2.4 2.4 0 0 1-.927.18h-4.819v-1.592h4.82a.8.8 0 0 0 .823-.823c0-.24-.077-.42-.235-.572a.8.8 0 0 0-.589-.235h-3.21q-.501 0-.944-.18a2.6 2.6 0 0 1-.747-.517 3 3 0 0 1-.518-.769q-.18-.45-.18-.949 0-.5.18-.927.198-.441.518-.768.321-.32.747-.502c.3-.131.61-.196.943-.196h4.836zm-15.734 4.034q.002-.841.305-1.554c.213-.49.502-.91.857-1.264.37-.371.795-.655 1.286-.856a3.8 3.8 0 0 1 1.554-.322c.55 0 1.074.109 1.554.322.49.201.915.49 1.286.856q.554.537.856 1.264.32.712.322 1.554c0 .562-.11 1.063-.322 1.554a4 4 0 0 1-.856 1.287 4.2 4.2 0 0 1-1.286.877 3.9 3.9 0 0 1-1.554.306 4 4 0 0 1-1.554-.306 4.1 4.1 0 0 1-1.286-.877 4.3 4.3 0 0 1-.856-1.287 4 4 0 0 1-.306-1.554m1.57 0q0 .5.18.949.198.45.518.785.344.32.785.518.442.18.949.18c.338 0 .649-.06.943-.18.3-.131.55-.306.769-.518q.336-.344.518-.785c.13-.3.196-.611.196-.949s-.066-.643-.196-.927a2.15 2.15 0 0 0-.518-.768 2.15 2.15 0 0 0-.769-.518 2.3 2.3 0 0 0-.943-.197q-.5 0-.949.197c-.3.12-.556.289-.785.518a2.5 2.5 0 0 0-.518.768q-.18.427-.18.927m-8.395-2.857a3.8 3.8 0 0 1 1.319-.872 4 4 0 0 1 1.516-.305q.77.001 1.499.305.752.285 1.34.872l.557.557-1.107 1.123-.572-.557a2.42 2.42 0 0 0-1.712-.714 2.42 2.42 0 0 0-1.712.714c-.24.229-.414.491-.534.786-.12.299-.18.599-.18.91s.06.611.18.91.294.567.534.802a2.34 2.34 0 0 0 1.712.714q.484 0 .927-.18.45-.181.785-.534l.572-.556 1.107 1.123-.556.556q-.59.59-1.341.894c-.49.191-.987.283-1.5.283a4.3 4.3 0 0 1-1.515-.283 4 4 0 0 1-1.32-.894 3.9 3.9 0 0 1-.877-1.319 4.1 4.1 0 0 1-.284-1.5c0-.512.099-1.03.284-1.515q.283-.729.878-1.32m-9.704 2.824q.001-.842.305-1.553c.212-.491.501-.911.856-1.271q.557-.554 1.286-.855a3.9 3.9 0 0 1 1.554-.322c.545 0 1.08.109 1.554.322.49.201.916.49 1.287.855.37.36.654.78.855 1.271q.32.711.322 1.553v4.018h-1.586v-4.018q0-.5-.197-.926a2.1 2.1 0 0 0-.518-.769 2.1 2.1 0 0 0-.768-.518c-.3-.131-.61-.196-.949-.196s-.649.065-.943.196q-.425.181-.769.518a2.5 2.5 0 0 0-.518.769q-.18.426-.18.926v4.018H55.26v-4.018zm-1.63 1.194 1.122 1.123-.556.557a3.98 3.98 0 0 1-2.84 1.183 3.98 3.98 0 0 1-2.84-1.183 3.8 3.8 0 0 1-.873-1.32 4.2 4.2 0 0 1-.283-1.515c0-.513.093-1.009.283-1.5a3.8 3.8 0 0 1 .873-1.319 3.9 3.9 0 0 1 1.319-.878 4 4 0 0 1 1.516-.305q.77.002 1.499.305c.501.191.948.48 1.341.878l.556.556-4.449 4.443q.678.342 1.429.235.769-.124 1.34-.698l.557-.556zm-3.98-2.873a2.34 2.34 0 0 0-.715 1.712q-.001.555.251 1.052c.142-.141.355-.359.644-.643l.926-.927.949-.948c.31-.3.545-.529.714-.698a2.4 2.4 0 0 0-1.445-.229c-.501.071-.937.3-1.319.676zm-9.127-1.145a3.8 3.8 0 0 1 1.32-.872 4 4 0 0 1 1.515-.305q.77.001 1.5.305.753.285 1.335.872l.556.557-1.106 1.123-.573-.557a2.42 2.42 0 0 0-1.712-.714 2.42 2.42 0 0 0-1.711.714c-.24.229-.415.491-.535.786-.12.299-.18.599-.18.91s.06.611.18.91.295.567.535.802a2.34 2.34 0 0 0 1.711.714q.484 0 .927-.18.45-.181.785-.534l.573-.556 1.106 1.123-.556.556c-.392.392-.84.692-1.335.894a4.1 4.1 0 0 1-1.5.283c-.512 0-1.02-.098-1.515-.283a4 4 0 0 1-1.32-.894 3.8 3.8 0 0 1-.872-1.319 4.15 4.15 0 0 1 0-3.015q.285-.729.872-1.32" clip-rule="evenodd" fill-rule="evenodd" data-color="1"/>
            <path fill="#ffffff" d="M26.74 61c-5.942-.584-10.39 4.688-10.87 7.452-.409 2.344-2.382 12.468-2.382 12.468h4.53s.447-2.796.594-3.129c.148-.332.431-.332.693-.3.261.038 1.324 1.772 5.457 1.112 4.132-.654 7.07-4.677 8.145-7.736 1.074-3.058-.23-9.284-6.172-9.867zm.53 11.388c-1.641 1.963-4.345 2.405-6.035.976-1.69-1.423-1.729-4.17-.088-6.138 1.641-1.963 4.345-2.405 6.035-.976 1.69 1.423 1.729 4.17.088 6.138" clip-rule="evenodd" fill-rule="evenodd" data-color="1"/>
            <path fill="#ffffff" d="M57.86 71.227c1.908-.709 2.55-2.24 2.474-3.642-.076-1.4-2.017-7.686-9.137-6.236s-9.011 7.943-8.373 11.879c.703 4.34 5.124 6.106 9.655 5.076 4.53-1.025 6.525-5.24 6.525-5.24h-5.348s-.67 1.249-3.058 1.249c-2.873 0-3.097-2.573-3.097-2.573h6.526c1.216 0 1.919.185 3.827-.518zM47.467 68.17s1.401-2.573 4.307-2.835c2.912-.262 3.762 2.835 3.762 2.835h-8.074z" clip-rule="evenodd" fill-rule="evenodd" data-color="1"/>
        </g>
        <defs fill="none">
            <clipPath id="5aeb54e3-dbc4-4df5-9b02-915f11ca99ce">
                <path fill="#ffffff" d="M144.297 0v144.297H0V0z"/>
            </clipPath>
        </defs>
    </g>
</svg>
